<?xml version="1.0" encoding="utf-8"?>
<!-- Generator: Adobe Illustrator 26.2.1, SVG Export Plug-In . SVG Version: 6.00 Build 0)  -->
<svg version="1.1" xmlns="http://www.w3.org/2000/svg" xmlns:xlink="http://www.w3.org/1999/xlink" x="0px" y="0px"
	 viewBox="0 0 1423.5 949.2" style="enable-background:new 0 0 1423.5 949.2;" xml:space="preserve">
<style type="text/css">
	.st0{fill:#D0D0D0;}
	.st1{fill:#EDEDED;}
	.st2{fill:#9D9D9C;}
	.st3{fill:#244A9A;}
	.st4{fill:none;}
	.st5{fill:#FFFFFF;}
</style>
<g id="Layer_2">
</g>
<g id="Layer_1">
	<g id="a">
	</g>
	<path class="st0" d="M1101.4,602.9c-1.2-12.6-5.9-24-10.5-32.5c0-0.1-0.1-0.2-0.1-0.3c-24.2,22.9-55,42.6-90.3,58.4
		c-1.8,0.8-3.5,1.6-5.3,2.3c-19.7,8.5-40.7,15.7-62.8,21.6c-0.5,0.2-1,0.4-1.5,0.5c0,0,0,0-0.1,0c-0.7,0.2-1.5,0.4-2.2,0.5
		c-7,1.8-14.2,3.5-21.4,5.1c-32.9,7.1-67.6,11.3-103.3,12.4c-11.6,0.4-23.4,0.4-35.1,0h-0.1c-1.4,0-2.9,0-4.3-0.1c-1,0-2-0.1-3-0.1
		c-42.3-1.7-73-14.2-95.4-30.6c0,0,0,0,0,0c-2.7-1.9-5.2-3.9-7.7-6c-3.3-2.8-6.3-5.6-9.2-8.5c-2-2-3.8-4-5.6-6
		c-1.5-1.7-3-3.5-4.4-5.2c-1.1-1.3-2.1-2.6-3.1-3.9c-0.8-1-1.5-2-2.2-3.1c-7.2-10.1-12.5-20.1-16.3-29c-4.1-9.2-6.4-17.2-7.8-22.8
		v-0.1l-9.5-5.6l-20-11.8v-0.1l-51.3-30.6l-0.2,0.2l-18.5,24.2l-85.3,112c-0.1,0.1-0.2,0.2-0.3,0.4s-0.2,0.3-0.3,0.4
		c-0.2,0.2-0.4,0.5-0.6,0.7c-0.9,0.9-1.8,1.7-2.9,2.3h0c-0.5,0.3-1.1,0.6-1.6,0.9c0,0,0,0,0,0c-0.3,0.1-0.6,0.3-0.9,0.4
		c-2.6,1-5.3,1.4-8.1,1.1c-2.5-0.3-4.9-1.2-6.9-2.5c-0.1-0.1-0.2-0.1-0.2-0.2c-2.5-1.7-4.5-4.1-5.7-7.1l-15.3-36.5l-39.6-94.3
		l-65.6,64.3c0,0,0,0.1,0,0.1c0.6,4.3,1.3,8.6,2.1,12.8c0,0.1,0,0.2,0,0.2c0.3,1.4,0.5,2.9,0.8,4.3c0.3,1.9,0.6,3.7,0.9,5.4
		c7.2,37,19.5,67.6,36.3,93.1c0,0,37.7,81.2,170.4,112.8c6.7,1.6,13.7,3.1,20.9,4.4c47.3,10.6,94.6,12.7,136.2,9.2
		c7.4-0.6,14.8-1.3,22.3-2.2c1.2-0.1,2.5-0.3,3.7-0.5c0.8-0.1,1.7-0.2,2.5-0.3c3.2-0.4,6.4-0.9,9.6-1.4c11.1-1.7,22.3-3.7,33.4-6.1
		c5.6-1.2,11.2-2.5,16.8-3.8c65.1-15.7,131.3-37.2,202.4-65.8c37.9-15.3,77.4-32.3,112.4-54.1c0.2-0.1,0.5-0.3,0.7-0.4
		c4.8-3,9.4-6,14-9.2c23.4-16,36.5-34.5,39-54.8C1101.8,612.3,1101.9,607.5,1101.4,602.9L1101.4,602.9z M1092.1,332.8
		c-0.1-5.8-1-11.7-3.1-18.1v-0.1c-1.1-4.4-2.8-9-4.9-13.5c-0.4-0.9-0.7-1.8-1-2.8c-0.1-0.6-0.2-1.1-0.3-1.8
		c0-0.1-5.9-36.1-52.2-93.9c-5.3-6.6-11-13.6-17.6-20.5c-8.1-8.8-17.2-17.5-27.3-25.2c-0.2-0.1-0.4-0.3-0.6-0.5
		c-9.9-7.5-20.8-14-32.8-18.5c-23.5-9-48.7-6.7-75.1-2.7c-0.2,0-0.4,0.1-0.6,0.1c-4.4,0.7-8.8,1.4-13.3,2.2l-9,1.5
		c-0.1,0-0.2,0-0.3,0.1c-0.4,0-0.8,0.1-1.2,0.2c-1.3,0.2-2.6,0.4-3.8,0.7c-17.1,3.1-36.6,8.2-55.2,13.7c-3.2,1-6.5,1.9-9.7,2.9
		c-12.5,3.9-24.3,7.8-34.3,11.2c-0.9,0.3-1.8,0.6-2.7,1c-2.5,0.9-4.8,1.7-7,2.4c-1.2,0.4-2.4,0.8-3.6,1.3c0,0,0,0-0.1,0
		c-10.5,3.8-17.1,6.3-17.3,6.4c-2.8,1.1-5.9,1.3-8.7,0.7c-2-0.4-3.9-1.1-5.7-2.3c-0.6-0.4-1.2-0.8-1.7-1.3c-1.5-1.2-3.2-2.7-5.3-4.2
		c-0.5-0.4-1.1-0.8-1.6-1.2c-18-13.2-53.5-33.3-79.1-23.4c-5.5,2.1-10.8,6.2-15.2,11.8c-0.1,0.1-0.2,0.3-0.3,0.4
		c-0.7,0.9-1.4,1.8-2.3,2.8c-0.4,0.5-0.8,1-1.2,1.5c-0.7,0.8-1.4,1.7-2.2,2.5c0,0,0,0,0,0c-11.7,13-32.8,31.2-62.1,35.1
		c0,0-0.1,0-0.1,0c-6.9,0.9-14.3,1-22.2,0c-1-0.1-6.4-0.9-14.5-0.9c-2.1,0-4.4,0-6.9,0.2h0c-2.4,0.1-5,0.3-7.7,0.6h0
		c-3.6,0.4-7.4,1-11.4,1.8c-6,1.2-12.3,3-18.6,5.6c-4.9,2-9.9,4.4-14.8,7.4c-1.5,0.9-2.9,1.8-4.3,2.8
		c-21.6,14.5-41.1,40.2-48.5,85.2c-0.2,1-0.4,1.9-0.7,2.9c-0.5,1.3-1.1,2.6-1.9,3.8c0,0,0,0,0,0.1c-0.2,0.3-0.4,0.6-0.6,0.9
		c-0.2,0.3-0.4,0.6-0.6,0.8c-0.2,0.2-0.4,0.3-0.5,0.5c-0.4,0.4-0.8,0.8-1.2,1.2c-0.4,0.4-0.7,0.7-1,1l0,0c-0.3,0.3-0.7,0.6-1,1
		c-0.4,0.4-0.7,0.7-1.1,1.1c-0.5,0.4-1,0.8-1.4,1.1c-1,0.8-2.2,1.7-3.3,2.4c-2.3,1.5-4.9,3.2-7.8,5c-1,0.7-2.1,1.3-3.2,2
		c-2.3,1.4-4.3,2.7-5.3,3.3c-3.2,2.7-6.3,5.4-9.4,8.3c-0.1,0-0.1,0.1-0.2,0.2c-13.4,12.6-25.6,26.9-36,42.8c-8.5,13-15.5,27-21,42.1
		c-0.8,2.2-1.6,4.3-2.3,6.5c-0.1,0.2-0.2,0.4-0.2,0.6c-0.6,1.6-1.1,3.2-1.6,4.9c-7.8,25.4-11.6,53.3-11.3,82.9
		c0,3.2,0.1,6.4,0.2,9.8c0,0.1,0,0.2,0,0.3c0,1,0.1,2.1,0.1,3.1l0.2-0.2l63.6-62.5c1-1,2.1-1.8,3.3-2.4c0.2-0.1,0.4-0.2,0.6-0.3
		c1.7-0.9,3.6-1.5,5.6-1.7c1.7-0.2,3.4-0.2,5,0.1c1.2,0.3,2.4,0.7,3.5,1.2c0,0,0.1,0,0.2,0.1c3.5,1.7,6.3,4.6,7.9,8.3l53.4,126.9
		l0.2-0.3l50.8-66.7l44.9-58.8c0.6-0.7,1.2-1.4,1.8-2c0,0,0.1-0.1,0.1-0.1c2-1.8,4.5-3.1,7-3.7c0.4-0.1,0.7-0.2,1.1-0.2
		c0,0,0.1,0,0.2,0c0.5-0.1,1-0.1,1.5-0.2h0.1c0.3,0,0.6,0,0.9,0c2.4,0,4.8,0.6,7.1,1.7c0.3,0.2,0.6,0.3,1,0.5l0.2,0.1l49.4,29.5
		l13.1,7.9l25.9,15.5l5.9,3.5l2,1.1c63.9,8.2,137.5-44.1,158.5-60.2c0.6-0.5,1.2-0.9,1.7-1.3c0.6-0.4,1.1-0.9,1.6-1.2
		c0.7-0.6,1.2-1,1.7-1.3c1-0.8,2-1.5,3.1-2.2c3.1-2.2,6.4-4.4,9.9-6.6c1.2-0.7,2.4-1.4,3.6-2.2c1.2-0.7,2.4-1.4,3.7-2.1
		c1.6-0.9,3.2-1.7,4.8-2.6c1.6-0.9,3.3-1.7,5-2.6c3.4-1.7,6.9-3.3,10.5-5c1.5-0.7,2.9-1.3,4.4-1.9c6-2.6,12.3-5.1,18.9-7.5
		c20.4-7.6,41.8-11.2,64.2-10.7h2.1c6.5,0.1,13.6,0.2,20.8-0.1c3.1-0.1,6.2-0.3,9.3-0.6c1.1-0.1,2.3-0.2,3.5-0.3
		c14.1-1.4,28.4-4.4,40.8-10.1c7.8-3.6,13.3-11.4,19.7-20.5c9.8-13.7,21.8-30.8,45.7-34.6c6.2-1,11.2-2.2,15-3.5
		c0.2-0.1,0.4-0.1,0.6-0.2c0,0,0.1,0,0.1,0c2.1-0.8,3.9-1.6,5.5-2.5c0,0,0,0,0,0c0.5-0.3,1-0.6,1.4-0.9c0.6-0.4,1.1-0.8,1.7-1.2
		c0.2-0.2,0.4-0.3,0.6-0.5c0.6-0.5,1.1-1.1,1.5-1.6c0.3-0.4,0.6-0.7,0.8-1.1C1092,341.2,1092.3,337.3,1092.1,332.8L1092.1,332.8z
		 M901.9,297.9l-0.1,0.1c-0.3,0.9-0.8,1.8-1.4,2.8c-4.1,7.1-12.2,10.9-20.1,12.2c-9.4,1.5-20.1-0.8-25.6-8.6c-1.9-2.8-2.8-6-2.8-9.4
		v-0.3c0-7.8,4.8-16.2,12.1-19.9c9.1-4.8,24.1-2.7,32.7,4.1C902.3,283.5,905.2,289.9,901.9,297.9L901.9,297.9z M996.2,260.5
		c-9.9-2.6-13.3-9.4-12.8-16.9c-0.1-0.4,0-0.8,0-1.1c1.3-10.9,10.5-23,20.3-26.1c11.2-3.5,25.2,2.9,27.3,14.4
		c1.2,6.3-1.1,12.5-5.1,17.6c-1.9,2.4-4.2,4.7-6.8,6.5C1012.5,259.7,1004.1,262.6,996.2,260.5L996.2,260.5z M476.8,303.4
		c0-0.1,0-0.2,0.1-0.3c0,0,0,0,0-0.1c0-0.1,0-0.2,0.1-0.4c0.3-0.6,0.5-1.4,1-2.4c0,0,0-0.1,0.1-0.3c3.2-6.6,13.9-19.8,44.8-17.2
		c11.2,1,24.9,3.9,42.1,10c13.3,4.8,24.5,7.6,33.6,9.1c29,4.8,39-4.2,42.5-11.3v-0.1c1.3-2.6,1.7-5,1.7-6.3c0.1-0.3,0.1-0.6,0.1-0.8
		v-0.1c13.6,31.8-5.8,42.2-34,43c0.9,3.1,1.4,6.3,1.8,9.6c1.3,10.7,0.6,20.9-1.8,30.3c-6.3,24.4-23.7,43-46.3,45.7
		c-31.2,3.8-60.3-24-65-62.1c-1.9-15.7,0.5-30.6,6.3-43c-9.5-8-20.8-5.4-25.3-4c-1.1,0.3-1.7,0.7-1.9,0.7
		C476.8,303.5,476.8,303.5,476.8,303.4L476.8,303.4z"/>
	<path class="st1" d="M1070.8,519.8l-75.2-51L970.8,452c0.2,0,0.4-0.1,0.6-0.1c4.1-0.6,8.1-1.4,12.2-2.3c0.8-0.2,1.7-0.4,2.5-0.6
		c8.4-2.1,16.7-4.9,24.6-8.5c5-2.4,9.4-5.3,13.3-8.6c0.6-0.5,1.1-1,1.7-1.4c1.5-1.3,2.8-2.7,4.1-4c1.3-1.4,2.5-2.8,3.7-4.2
		c0.6-0.7,1.2-1.4,1.7-2.2c2.8-3.6,5.4-7.3,7.8-10.8c0.3-0.5,0.6-0.9,1-1.4c6.4-9.1,11.2-15.2,17.6-18.2c0.1,0,0.2-0.1,0.3-0.1
		c1.7-0.7,3.4-1.3,5.3-1.6l0.8,29.9L1070.8,519.8L1070.8,519.8z"/>
	<path class="st1" d="M759.3,526.9V636c-22.7-1.3-66.2-8.6-95.2-43.4c-1-1.1-1.9-2.3-2.8-3.5c-0.9-1.1-1.7-2.2-2.5-3.4
		c-0.2-0.3-0.4-0.5-0.6-0.8c-2.4-3.5-4.7-7.3-6.9-11.3c-1.3-2.5-2.6-5.1-3.8-7.9c0,0,0-0.1,0-0.1c-0.4-0.9-0.8-1.8-1.1-2.8h0.2
		c2.5-0.1,5-0.2,7.5-0.4c2.9-0.2,5.8-0.5,8.7-0.9c19.8-2.4,39.3-8.2,57.4-15.5c0.6-0.2,1.1-0.5,1.7-0.7
		C735.3,539.7,747.9,533.3,759.3,526.9L759.3,526.9z"/>
	<path class="st1" d="M892.5,628.9c-32.1,6.4-66.2,9.9-101.1,10.1V535.6l80.2,73.9l10.9,10.1L892.5,628.9L892.5,628.9z"/>
	<path class="st1" d="M909.1,600.5L909.1,600.5l-90.1-83l-18.5-17.2c1.5-1.1,2.8-2.1,4-3c3.4-2.6,6.1-4.7,7.9-6.2
		c0.7-0.6,1.5-1.1,2.3-1.7c0.1-0.1,0.2-0.1,0.3-0.2c12.7-9,30.9-18,52.6-25.9c6.5-2.4,13.1-4.3,19.7-5.6c1-0.2,1.9-0.4,2.9-0.6
		c5.4-1,10.9-1.7,16.4-2.2v0.3l0.6,35.4l1.3,82.3L909.1,600.5L909.1,600.5z"/>
	<path class="st1" d="M1062.2,552.7c-9.8,8.7-20.5,16.7-32.2,24.2c-0.3,0.2-0.6,0.4-1,0.6c-7.2,4.5-14.8,8.8-22.8,12.9
		c0,0.1-0.1,0.1-0.1,0.1h-0.1c-19.6,10.1-41.3,19-64.4,26.1l-0.1-5.3l-0.2-9.2l-2-116.8l-0.3-16l0.3,0.2l17.5,12h0.1l96.7,65.4
		L1062.2,552.7L1062.2,552.7L1062.2,552.7z"/>
	<path class="st1" d="M578.8,355.1c-9.1,1.2-17.6-7.2-19-18.5c-1.3-11.3,4.9-21.4,13.9-22.6c9-1,17.5,7.3,18.9,18.6
		C594,344,587.7,354.1,578.8,355.1z"/>
	<path class="st1" d="M1089.7,344.6c-0.2,0.4-0.5,0.7-0.8,1.1c-0.5,0.6-1,1.1-1.5,1.6c-0.2,0.2-0.4,0.3-0.6,0.5
		c-0.5,0.4-1.1,0.8-1.7,1.2c-0.5,0.3-0.9,0.6-1.4,0.9c0,0,0,0,0,0c-1.5,0.9-3.3,1.7-5.5,2.5c0,0-0.1,0-0.1,0
		c-0.2,0.1-0.4,0.1-0.6,0.2c-3.8,1.3-8.8,2.4-15,3.5c-23.9,3.8-35.9,20.9-45.7,34.6c-6.3,9.1-11.8,16.9-19.7,20.5
		c-12.3,5.8-26.6,8.7-40.8,10.1c-1.2,0.1-2.3,0.2-3.5,0.3c-3.1,0.3-6.3,0.5-9.3,0.6c-7.2,0.3-14.2,0.3-20.8,0.1h-2.1
		c-22.3-0.5-43.7,3.1-64.2,10.7c-6.6,2.4-12.9,4.9-18.9,7.5c-1.5,0.6-3,1.3-4.4,1.9c-3.7,1.6-7.1,3.3-10.5,5c-1.7,0.8-3.3,1.7-5,2.6
		c-1.6,0.9-3.2,1.7-4.8,2.6c-1.3,0.7-2.5,1.4-3.7,2.1c-1.2,0.7-2.4,1.4-3.6,2.2c-3.5,2.2-6.8,4.3-9.9,6.6c-1.1,0.7-2.1,1.5-3.1,2.2
		c-0.4,0.3-1,0.8-1.7,1.3c-0.5,0.4-1,0.8-1.6,1.2c-0.5,0.4-1.1,0.9-1.7,1.3c-20.9,16-94.5,68.4-158.5,60.2l-2-1.1l-5.9-3.5
		l-25.9-15.5l-13.1-7.9l-18.9-31.2c104.5,51.2,143.5,45.8,192.8-6.8c26.6-28.5,47.9-35.2,72.1-44c18.1-6.7,59.7-15.4,78.9-15.7
		c8.6-0.3,16.7-0.4,24.1-0.8c20.7-0.9,22.4-1.8,42-9.2c18.7-7.1,31.4-21.2,45.8-34.3c13.7-12.5,30.5-20.8,46.9-29.3
		c8.3-4.2,16.5-9.3,22.8-15.8c0,0,0,0,0.1-0.1c2.1,6.4,3,12.3,3.1,18.1C1092.2,337.3,1092,341.2,1089.7,344.6L1089.7,344.6z"/>
	<path class="st2" d="M759.3,526.9v23.8c-11.3,6-22.2,11.2-32.3,14.6c-18,6-36.6,8.3-52.6,8.7c-8.6,0.2-16.4,0-23-0.4
		c-1.3-2.5-2.6-5.1-3.8-7.9c0,0,0-0.1,0-0.1c-0.4-0.9-0.8-1.8-1.1-2.8h0.2c2.5-0.1,5-0.2,7.5-0.4c2.9-0.2,5.8-0.5,8.7-0.9
		c19.8-2.4,39.3-8.2,57.4-15.5c0.6-0.2,1.1-0.5,1.7-0.7C735.3,539.7,747.9,533.3,759.3,526.9L759.3,526.9z"/>
	<path class="st2" d="M907.3,490.7c-8.5,1.2-17.1,2.3-25.8,3.5c-19.5,2.4-41,11.8-62.5,23.4l-18.5-17.2c1.5-1.1,2.8-2.1,4-3
		c3.4-2.6,6.1-4.7,7.9-6.2c0.7-0.6,1.5-1.1,2.3-1.7c0.1-0.1,0.2-0.1,0.3-0.2c12.7-9,30.9-18,52.6-25.9c6.5-2.4,13.1-4.3,19.7-5.6
		c1-0.2,1.9-0.4,2.9-0.6c5.4-1,10.9-1.7,16.4-2.2v0.3L907.3,490.7L907.3,490.7z"/>
	<path class="st2" d="M956.8,481.4c-5.7,1.4-11.6,2.7-17.5,3.8c0,0,0,0-0.1,0l-0.3-16l0.3,0.2L956.8,481.4L956.8,481.4z"/>
	<path class="st2" d="M1068,417.9c-0.1,0-0.1,0.1-0.2,0.1c-10,7.9-20.8,16.7-29.9,24.9c-12.1,10.8-26.4,19.3-42,25.8
		c-0.1,0-0.2,0.1-0.3,0.1L970.8,452c0.2,0,0.4-0.1,0.6-0.1c4.1-0.6,8.1-1.4,12.2-2.3c0.8-0.2,1.7-0.4,2.5-0.6
		c8.4-2.1,16.7-4.9,24.6-8.5c5-2.4,9.4-5.3,13.3-8.6c0.6-0.5,1.1-1,1.7-1.4c1.5-1.3,2.8-2.7,4.1-4c1.3-1.4,2.5-2.8,3.7-4.2
		c0.6-0.7,1.2-1.4,1.7-2.2c2.8-3.6,5.4-7.3,7.8-10.8c0.3-0.5,0.6-0.9,1-1.4c6.4-9.1,11.2-15.2,17.6-18.2c0.1,0,0.2-0.1,0.3-0.1
		c1.7-0.7,3.4-1.3,5.3-1.6L1068,417.9L1068,417.9z"/>
	<path class="st2" d="M759.3,604.6V636c-22.7-1.3-66.2-8.6-95.2-43.4c-1-1.1-1.9-2.3-2.8-3.5c-0.9-1.1-1.7-2.2-2.5-3.4
		c-0.2-0.3-0.4-0.5-0.6-0.8c-2.4-3.5-4.7-7.3-6.9-11.3c-1.3-2.5-2.6-5.1-3.8-7.9c0,0,0-0.1,0-0.1c-0.4-0.9-0.8-1.8-1.1-2.8h0.2
		c2.5-0.1,5-0.2,7.5-0.4c2.9-0.2,5.8-0.5,8.7-0.9l-0.1,0.3l-0.6,2c0,0,3.6,4.2,12.2,10.1C688,583.3,714.3,596.9,759.3,604.6
		L759.3,604.6z"/>
	<path class="st2" d="M892.5,628.9c-32.1,6.4-66.2,9.9-101.1,10.1v-30.3c22.8,2.1,49.3,2.6,79.9,0.8c0.1,0,0.2,0,0.3,0l10.9,10.1
		L892.5,628.9L892.5,628.9z"/>
	<path class="st2" d="M1006,590.5c-19.6,10.1-41.3,19-64.4,26.1l-0.1-5.3l-0.2-9.2c0,0,0.1,0,0.2,0
		C961.5,599.1,983.1,595.3,1006,590.5z"/>
	<path class="st2" d="M1101.2,617.2c-2.6,20.3-15.7,38.8-39,54.8c-4.6,3.2-9.3,6.2-14,9.2c-0.2,0.1-0.5,0.3-0.7,0.4
		c-35,21.8-74.4,38.9-112.4,54.1C864,764.4,797.8,786,732.7,801.7c-5.6,1.4-11.2,2.7-16.8,3.8c-11.2,2.4-22.3,4.4-33.4,6.1
		c-3.2,0.5-6.4,0.9-9.6,1.4c-0.8,0.1-1.7,0.2-2.5,0.3c-1.2,0.2-2.5,0.3-3.7,0.5c-7.5,0.9-14.9,1.6-22.3,2.2
		c-41.6,3.5-88.9,1.4-136.2-9.2c-7.2-1.3-14.2-2.8-20.9-4.4c-32.2-18-42.8-43.3-40.1-49.7c5.9-14.2,37.4-8.9,48.7-8
		c44.7,3.8,88.2,14.3,133,17.5c44.5,3.2,89.6,1.7,133.1-8.5c2.6-0.6,5.2-1.3,7.8-1.9c204.9-53.5,295.6-107.2,331.2-134.3
		C1101,617.4,1101.1,617.3,1101.2,617.2L1101.2,617.2z"/>
	<path class="st2" d="M609.4,366c-5.3,19.4-12.5,41.7-28.6,54.8c-18.2,14.6-46.7,10.8-65.7-0.5c-33.2-19.8-40.6-59.3-24.8-92.9
		c0.9-1.8,8.1-12.3,13.7-20.7c-5.8,12.5-8.2,27.3-6.3,43c4.6,38.1,33.8,66,64.9,62.1c22.6-2.7,40-21.3,46.3-45.7L609.4,366
		L609.4,366z"/>
	<path class="st1" d="M642.5,285.2l-1.3,5.3v0.1c-3.5,7.1-13.5,16-42.5,11.3c-9.1-1.5-20.3-4.4-33.6-9.1c-17.2-6.2-30.9-9-42.1-10
		c-30.9-2.6-41.6,10.7-44.8,17.2c1.4-3.5,3.6-8.6,5-11c8.8-14.6,26.9-21.2,43.4-16.3C624,301.1,639.9,290.3,642.5,285.2L642.5,285.2
		z"/>
	<path class="st1" d="M643,283.4c0,0.1,0,0.5-0.1,0.8c0,0.3-0.1,0.6-0.4,1L643,283.4L643,283.4z"/>
	<path class="st1" d="M1013,182c-0.3-0.1-0.5-0.3-0.8-0.4c-50-26.3-142.5-48.2-282.5,18.1c0,0-19.1,10.9-60.1-5.5
		c-40.9-16.3-76.6,8.2-110,28c-33.5,19.9-70.3-17.1-103.2,13.1c-31.8,29.1-44.3,44.1-75,75.9c-0.1,0.1-0.3,0.3-0.4,0.5
		c0.2-0.3,0.4-0.6,0.6-0.9c0,0,0,0,0-0.1c0.8-1.2,1.4-2.4,1.9-3.8c0.3-0.9,0.6-1.9,0.7-2.9c7.5-45,27-70.7,48.5-85.2
		c1.5-1,2.9-1.9,4.3-2.8c4.9-3,9.9-5.4,14.8-7.4c6.4-2.6,12.7-4.3,18.6-5.6c4-0.8,7.8-1.4,11.4-1.8h0c2.7-0.3,5.3-0.5,7.7-0.6h0
		c2.4-0.1,4.8-0.2,6.9-0.2c8.1,0,13.5,0.8,14.5,0.9c7.8,1,15.2,0.9,22.2,0c0,0,0.1,0,0.1,0c29.3-3.8,50.5-22.1,62.1-35.1
		c0,0,0,0,0,0c0.8-0.9,1.5-1.7,2.2-2.5c0.4-0.5,0.8-1,1.2-1.5c0.9-1,1.6-1.9,2.3-2.8c0.1-0.1,0.2-0.3,0.3-0.4
		c4.4-5.6,9.7-9.7,15.2-11.8c25.6-9.9,61.1,10.2,79.1,23.4c0.5,0.4,1.1,0.8,1.6,1.2c2,1.5,3.8,2.9,5.3,4.2c0.6,0.5,1.1,0.9,1.7,1.3
		c1.8,1.1,3.7,1.9,5.7,2.3c2.9,0.6,5.9,0.3,8.7-0.7c0.2-0.1,6.8-2.6,17.3-6.4c0,0,0,0,0.1,0c1.1-0.4,2.3-0.8,3.6-1.3
		c2.2-0.8,4.5-1.6,7-2.4c0.9-0.3,1.8-0.6,2.7-1c10-3.4,21.8-7.3,34.3-11.2c3.2-1,6.4-2,9.7-2.9c18.6-5.5,38.1-10.6,55.2-13.7
		c1.3-0.2,2.6-0.5,3.8-0.7c0.4-0.1,0.8-0.1,1.2-0.2c0.1,0,0.2,0,0.3-0.1l9-1.5c4.5-0.7,8.9-1.5,13.3-2.2c0.2,0,0.4,0,0.6-0.1
		c26.5-4.1,51.6-6.3,75.1,2.7c12,4.5,22.9,11,32.8,18.5c0.2,0.2,0.4,0.3,0.6,0.5C995.8,164.4,1004.9,173.2,1013,182L1013,182z"/>
	<path class="st1" d="M901.9,297.9c3.3-8,0.4-14.4-5.3-18.9c-8.6-6.8-23.6-8.9-32.7-4.1c-7.3,3.7-12.1,12.1-12.1,19.9
		c-0.4-3.1-2.4-31.7,25.7-32.2c9.6-0.1,19.4,3.6,25.7,10.8C908.2,279,909.8,288.4,901.9,297.9L901.9,297.9z"/>
	<path class="st1" d="M1025.9,248.3c4-5.1,6.3-11.3,5.1-17.6c-2.2-11.4-16.2-17.8-27.3-14.4c-9.8,3.1-19,15.1-20.3,26.1
		c0,0.4-0.1,0.8,0,1.2h-0.1c0,0-1.5-35.9,24.6-36.7c7.4-0.3,17.5,4,22.5,10C1035.5,223.2,1037,234.4,1025.9,248.3L1025.9,248.3z"/>
	<path class="st2" d="M586.1,563v-0.1l-56.2-27.5c0,0-96.8,125.1-97,125.5c-13.7,18.4-37.3,9.9-45.3-8.6
		c-16.9-39.1-34.9-72.7-51.6-112.1L279.6,591c-0.3-1.4-0.6-2.8-0.8-4.3c0-0.1,0-0.2,0-0.2c-0.8-4.2-1.4-8.5-2.1-12.8
		c0,0,0-0.1,0-0.1l65.6-64.3l39.6,94.3l15.3,36.5c1.2,2.9,3.2,5.4,5.7,7.1c0.1,0.1,0.2,0.1,0.2,0.2c2,1.3,4.4,2.2,6.9,2.5
		c2.8,0.3,5.5-0.1,8.1-1.1c0.3-0.1,0.6-0.3,0.9-0.4c0,0,0,0,0,0c0.6-0.3,1.1-0.6,1.6-0.9h0c1.1-0.6,2.1-1.4,2.9-2.3
		c0.2-0.2,0.4-0.4,0.6-0.7c0.1-0.1,0.2-0.2,0.3-0.4s0.2-0.2,0.3-0.4l85.3-112l18.5-24.2l0.2-0.2l51.3,30.6v0.1l20,11.8l9.5,5.6v0.1
		c1.4,5.6,3.7,13.6,7.8,22.8L586.1,563L586.1,563z"/>
	<path class="st2" d="M769.6,671.2c-125.7,21.3-169-60.8-183.4-108.2v-0.1c-3.3-10.7-5.1-19.5-6-25l20,11.8l9.5,5.6v0.1
		c1.4,5.6,3.7,13.6,7.8,22.8c3.8,8.9,9.1,18.9,16.3,29c0.7,1,1.5,2,2.2,3.1c1,1.3,2,2.6,3.1,3.9c1.4,1.7,2.8,3.5,4.4,5.2
		c1.8,2,3.7,4,5.6,6c2.9,2.9,5.9,5.7,9.2,8.5c2.4,2.1,5,4.1,7.7,6c0,0,0,0,0,0c22.3,16.4,53.1,28.8,95.4,30.6c1,0,2,0.1,3,0.1
		c1.4,0,2.9,0.1,4.3,0.1h0.1l0.7,0.3L769.6,671.2L769.6,671.2z"/>
	<path class="st1" d="M630.8,523.3l-9.1,1.9l-0.3,0.1l-25.9-15.5l-13.1-7.9L533,472.3l-0.2-0.1c-0.3-0.2-0.6-0.4-1-0.5
		c-2.3-1.1-4.7-1.7-7.1-1.7c-0.3,0-0.6,0-0.9,0h-0.1c-0.5,0-1,0.1-1.5,0.2c0,0-0.1,0-0.2,0c-0.4,0.1-0.7,0.1-1.1,0.2
		c-2.6,0.6-5,1.9-7,3.7c0,0-0.1,0.1-0.1,0.1c-0.6,0.6-1.3,1.3-1.8,2l-44.9,58.8l-50.8,66.7l-0.2,0.3l-53.4-126.9
		c-1.5-3.8-4.4-6.6-7.9-8.3c0,0-0.1,0-0.2-0.1c-1.1-0.6-2.3-1-3.5-1.2c-1.7-0.3-3.4-0.4-5-0.1c-2,0.2-3.8,0.8-5.6,1.7
		c-0.2,0.1-0.4,0.2-0.6,0.3c-1.2,0.6-2.3,1.5-3.3,2.4L273,532.3l-0.2,0.2c-0.1-1-0.1-2.1-0.1-3.1c0-0.1,0-0.2,0-0.3
		c-0.1-3.3-0.2-6.6-0.2-9.8c0.6-0.6,1.3-1.1,1.7-1.6c2.2-1.9,4.8-4.2,6.9-7.2c6.3-8,13.6-15,19.8-23c11.5-14.9,22.7-33.1,42.5-37.2
		c15.4-3.2,28.6,4.9,34.4,19l39.9,104.7l73.8-92.8c3.1-3.7,5.8-7.7,8.5-11.7c5.9-8.8,24.5-30.9,63.7,0.9c0.4,0.4,0.9,0.8,1.4,1.1
		L630.8,523.3L630.8,523.3z"/>
	<path class="st3" d="M378.7,314.1c-0.4,0.4-0.7,0.7-1,1l0,0c-0.3,0.3-0.7,0.6-1,1c0.2-0.2,0.5-0.4,0.6-0.5c1-0.9,1.9-1.7,2.6-2.7
		C379.5,313.3,379.1,313.7,378.7,314.1L378.7,314.1z M378.7,314.1c-0.4,0.4-0.7,0.7-1,1l0,0c-0.3,0.3-0.7,0.6-1,1
		c0.2-0.2,0.5-0.4,0.6-0.5c1-0.9,1.9-1.7,2.6-2.7C379.5,313.3,379.1,313.7,378.7,314.1L378.7,314.1z"/>
	<path class="st3" d="M272.7,529.4c0,1,0.1,2.1,0.1,3.1l0.2-0.2C272.9,531.3,272.8,530.4,272.7,529.4z M308.9,382.3
		c-8.5,13-15.5,27-21,42.1c5.6-15,12.7-29.1,21.2-42c10.3-16.1,22.5-30.2,35.8-43C331.4,352.1,319.3,366.5,308.9,382.3L308.9,382.3z
		 M340.5,467.1c1.7-0.9,3.6-1.5,5.6-1.7C344.1,465.5,342.3,466.1,340.5,467.1z M376.7,316.1c-0.4,0.4-0.7,0.7-1.1,1.1
		c0.5-0.3,1-0.6,1.3-1l0.5-0.6l0.3-0.4C377.3,315.5,377,315.8,376.7,316.1L376.7,316.1z M381,311.6c-0.2,0.3-0.4,0.6-0.6,0.8
		c0.4-0.2,0.6-0.5,0.6-0.5c0.1-0.3,0.3-0.6,0.4-0.8c0.1-0.1,0.1-0.3,0.2-0.4C381.5,311,381.3,311.3,381,311.6L381,311.6z
		 M342.3,509.3l-65.6,64.3c0,0,0,0.1,0,0.1l65.5-64.1l39.7,94L342.3,509.3L342.3,509.3z M410,649.8c-2.5-0.3-4.9-1.2-6.9-2.5
		c2,1.4,4.4,2.4,6.8,2.7c2.8,0.4,5.6-0.2,8.1-1.3C415.6,649.7,412.8,650.1,410,649.8L410,649.8z M362.7,475
		c-1.6-3.8-4.4-6.7-7.9-8.2c3.5,1.7,6.3,4.6,7.9,8.3l53.4,126.9l0.2-0.3L362.7,475L362.7,475z M384.4,304c-0.2,1-0.4,1.9-0.7,2.9
		c0.4-0.9,0.7-1.7,1-2.7c7.5-45,26.9-70.7,48.3-85.3C411.3,233.4,391.8,259.1,384.4,304L384.4,304z M424.8,643.7
		c-0.1,0.1-0.2,0.2-0.3,0.4C424.7,643.9,424.7,643.8,424.8,643.7l85.3-112L424.8,643.7L424.8,643.7z M511.6,476.4l-44.5,58.7
		l44.9-58.8c0.6-0.7,1.2-1.4,1.8-2C513.1,474.9,512.4,475.6,511.6,476.4L511.6,476.4z M524.7,470c2.4,0,4.8,0.6,7.1,1.7
		C529.6,470.5,527.1,469.9,524.7,470z M533.6,201.3c29.5-3.6,50.6-22,62.1-35.1C584.1,179.2,562.9,197.5,533.6,201.3z M528.8,507.2
		l-0.2,0.2l51.5,30.3l0,0v0L528.8,507.2L528.8,507.2z M600.1,549.7l9.5,5.7v0L600.1,549.7z M621.8,525.1L621.8,525.1l-26.2-15.4
		l25.9,15.5l5.9,3.5L621.8,525.1L621.8,525.1z M616.9,147.2c-5.5,2.1-10.8,6.2-15.2,11.8c4.8-5.4,9.6-9.4,15-11.5
		c25.8-10.5,61.2,10.1,79.3,23C678.1,157.4,642.6,137.3,616.9,147.2L616.9,147.2z M646.5,562.8h-0.2c0.4,0.9,0.8,1.9,1.1,2.8
		C647.2,564.7,646.8,563.8,646.5,562.8z M662.8,561.5c-2.9,0.4-5.8,0.7-8.7,0.9c2.8-0.1,5.6-0.2,8.6-0.6h0
		c19.8-2.4,39.4-8.3,57.5-15.8C702.1,553.3,682.6,559.1,662.8,561.5L662.8,561.5z M704.7,177.2c1.7,1.2,3.7,2,5.7,2.3
		C708.4,179.1,706.5,178.4,704.7,177.2z M664.1,592.5c29,34.9,72.6,42.1,95.2,43.4v0C736.7,634.7,693.3,627.2,664.1,592.5z
		 M792.5,465.8c-0.4,0.3-0.9,0.7-1.5,1.3c0.7-0.6,1.2-1,1.7-1.3c1-0.8,2-1.5,3.1-2.2C794.6,464.3,793.6,465.1,792.5,465.8
		L792.5,465.8z M768.8,670.9h-0.1c-1.4,0-2.9,0-4.3-0.1c1.5,0.2,2.9,0.4,4.2,0.4h15.6c6.6,0,13.3-0.1,19.9-0.3
		C792.3,671.2,780.6,671.2,768.8,670.9z M812.4,491c-1.8,1.5-4.5,3.6-7.9,6.2c3.5-2.6,6.2-4.5,7.7-6c0.8-0.6,1.6-1.2,2.4-1.8
		C813.9,489.9,813.2,490.5,812.4,491L812.4,491z M791.4,638.7v0.3c34.9-0.3,69.1-3.7,101.1-10.1
		C860.2,635.2,826.5,638.7,791.4,638.7z M863.2,137.5l-9,1.5c-0.1,0-0.2,0-0.3,0.1l9.2-1.4c4.5-0.8,9-1.6,13.4-2.3
		C872.2,136,867.7,136.7,863.2,137.5L863.2,137.5z M871.6,609.5l-80.2-73.9v0.3l79.9,73.6l0.3,0.2l10.9,9.8L871.6,609.5L871.6,609.5
		z M890.3,457.2c5.4-1,10.9-1.6,16.4-1.9V455C901.1,455.4,895.7,456.1,890.3,457.2z M908.6,573l0.4,27.5l0.1,0.1L908.6,573z
		 M928.6,653.4c-7,1.8-14.2,3.5-21.4,5.1c7.3-1.5,14.5-3.2,21.5-4.9c0.9,0,1.5-0.3,2.1-0.6C930.1,653.2,929.3,653.3,928.6,653.4
		L928.6,653.4z M939.3,485.6v-16.1l-0.3-0.2l0.3,16l2,116.8l0.2,9.2V602L939.3,485.6L939.3,485.6z M1082.9,296.5
		c0-0.1-5.9-36.1-52.2-93.9c-5.3-6.6-11-13.6-17.6-20.5c-8.1-8.8-17.2-17.5-27.3-25.2c9.8,7.6,18.6,16.2,26.5,24.8
		c0.1,0.2,0.3,0.4,0.5,0.5c7.1,7.1,12.7,14.1,17.6,20.5c46.6,57.9,52.3,93.9,52.3,93.9c0.3,0.5,0.4,1.1,0.6,1.8
		C1083.1,297.7,1083,297.1,1082.9,296.5L1082.9,296.5z M1043.1,409.3c-2.4,3.5-5,7.2-7.8,10.8
		C1038.1,416.5,1040.7,412.9,1043.1,409.3c0.3-0.4,0.6-0.9,1-1.4C1043.7,408.4,1043.4,408.8,1043.1,409.3L1043.1,409.3z
		 M1062.2,552.6c-9.9,8.6-20.5,16.6-32.1,24.2C1041.7,569.4,1052.4,561.3,1062.2,552.6L1062.2,552.6L1062.2,552.6z M1068,417.9
		l-0.8-29.9c-1.9,0.3-3.6,0.9-5.3,1.6c1.6-0.7,3.3-1.1,5.2-1.4l0.7,29.6v0.2l2.8,101.4l-74.7-50.7l-0.1-0.1l-24.4-16.7
		c-0.2,0-0.4,0.1-0.6,0.1l24.8,16.8l75.2,51L1068,417.9L1068,417.9z M1078.1,352.5c0,0,0.1,0,0.1,0c2.1-0.8,3.9-1.6,5.5-2.5
		c-1.5,0.8-3.2,1.6-5.3,2.2C1078.3,352.3,1078.2,352.4,1078.1,352.5L1078.1,352.5z M1092.1,332.8c-0.1-5.8-1-11.7-3.1-18.1v-0.1
		c-1.1-4.4-2.8-9-4.9-13.5c-0.4-0.9-0.7-1.8-1-2.8c0.2,1.1,0.4,2.2,0.8,3.1c2.1,4.2,3.5,9.2,4.9,13.4v0c2.2,6.4,2.8,12,2.8,17.6
		c0.4,4.5,0.2,8.7-2.1,12.2C1092,341.2,1092.3,337.3,1092.1,332.8L1092.1,332.8z M1090.8,570.1c-24.2,22.9-55,42.6-90.3,58.4
		c35.4-15.6,66.2-35.2,90.4-58.1C1090.9,570.3,1090.9,570.2,1090.8,570.1z M1101.4,602.9c0.4,4.6,0.3,9.3-0.5,14
		c0,0.2,0,0.4-0.1,0.6c-2.3,20.2-15.7,38.4-38.7,54.4c-4.6,3.2-9.2,6.3-14,9.3c4.8-3,9.4-6,14-9.2c23.4-16,36.5-34.5,39-54.8
		C1101.9,612.3,1101.9,607.5,1101.4,602.9L1101.4,602.9z"/>
	<path class="st4" d="M643.5,619.6c-1.5-1.7-3-3.5-4.4-5.2C640.5,616.1,642,617.8,643.5,619.6z"/>
	<path class="st3" d="M1261.9,166.6L1261.9,166.6c-7.7-1.4-16.2,2.8-19,10.6v1.4l-6.4,25.4l-55.1,215.2l-74.8-46.6
		c10.6-7.8,17.6-20.5,17.6-40.2c0-14.1-3.5-28.2-9.8-43c-2.1-9.9-12.7-49.4-58.6-107.3c-19.8-24-50.1-58.6-91.8-74.1
		c-36-14.1-72-7.8-105.9-2.1l-9.2,1.4c-46.5,7.8-110.1,29.6-132.7,38.1c-18.4-13.4-67.8-44.5-110.8-28.3
		c-11.3,4.2-21.2,12-29.7,22.6c-7.8,10.6-29.7,33.2-60,29.6c-1.4,0-117.8-17.6-155.2,97.4c-14.2-8.5-40.2-18.3-81.9-11.3
		c-2.1,0.7-4.2,2.1-4.2,4.2c0,2.8-8.4,59.3,17,91.8c-2.8,4.2-6.3,8.5-9.2,13.4c-0.7,0.7-1.4,2.1-2.2,2.8c-7-2.8-40.9-14.8-93.1,18.4
		c-1.4,1.4-2.1,3.5-1.4,5.6c0.7,2.1,19,58.6,55,77.6c0.7,0.7,1.4,0.7,2.1,0.7h0.7c-2.8,22.6-4.2,45.9-2.1,69.9
		c0,7,0.7,14.8,1.4,21.9l-29,29l-39.5,38.1c-1.4,1.4-2.8,3.5-3.5,5.6l-21.2,120.7v0.7c-2.2,8.5,3.5,16.9,12,19c2.8,0.7,5,0.7,7.8,0
		c5.6-1.4,9.9-6.4,11.3-12l2.1-9.9l17.6-104.5l48.7-47.3c3.5,18.3,7.8,36,14.1,51.5c0,0.7-0.7,0.7-0.7,0.7
		c-0.7,2.8-27.5,63.5-13.4,96c0.7,0.7,0.7,1.4,1.4,1.4c1.4,1.4,27.5,21.9,70.6,21.9c8.5,0,16.9-0.7,26.8-2.9
		c9.2,7.1,19,14.1,31.1,19.8c62.1,38.8,141.2,60,225.8,60c14.1,0,27.5-0.7,41.6-2.1c31.1-2.1,62.1-7,93.9-14.8
		c66.3-16.2,134.1-38.1,206.8-67.1c45.1-18.3,92.4-38.8,133.4-67c31.1-21.9,48.7-48,52.9-77.6c5.6-47.3-26.8-85.4-28.2-86.8
		c-0.7-0.7-1.4-1.4-2.1-2.1l-2.8-114.3l74.8,43.1c7.1,2.8,12.7,5.6,18.3,4.2c6.4-0.7,11.3-5.6,12.7-11.3l54.4-214.6l13.4-53
		C1276,177.9,1271,169.4,1261.9,166.6z M273,532.3L273,532.3l-0.2,0.2c-0.1-1-0.1-2.1-0.1-3.1c0-0.1,0-0.2,0-0.3
		c-0.3-3.4-0.3-6.6-0.3-9.7c-0.4-29.5,3.5-57.4,11.4-82.9c0.5-1.6,1-3.2,1.6-4.9c0-0.2,0.1-0.4,0.2-0.6c0.7-2.2,1.5-4.4,2.3-6.5
		c5.5-15.1,12.6-29.2,21-42.1c10.4-15.8,22.5-30.2,36-42.8c0,0,0.1-0.1,0.2-0.2c3-2.9,6.1-5.7,9.2-8.4c1.4-0.7,2.8-2.1,5.6-3.5
		c1-0.5,2.1-1.1,3.1-1.7c2.9-1.8,5.5-3.8,7.6-5.4c1.4-0.7,2.8-1.4,3.5-2.1c0.4-0.4,1-0.8,1.6-1.2c0.4-0.3,0.8-0.7,1.1-1
		c0.3-0.3,0.7-0.6,1-1l0,0l2-2.4c0.3,0,0.6-0.1,0.8-0.2c0.2-0.2,0.4-0.5,0.6-0.8c0.2-0.3,0.4-0.6,0.7-0.9c0,0,0,0,0-0.1
		c0.7-1.3,1.4-2.5,1.9-3.8c0.3-0.9,0.6-1.9,0.7-2.9c7.5-45,27-70.7,48.5-85.2c1.5-1,2.9-1.9,4.4-2.8c4.9-3,9.9-5.4,14.8-7.4
		c6.3-2.6,12.7-4.3,18.6-5.6c4-0.8,7.8-1.4,11.4-1.8h0c2.7-0.3,5.3-0.5,7.7-0.7h0c2.5-0.1,4.8-0.2,6.9-0.2c7.8,0,13.4,0.7,14.8,0.7
		c7.7,1,15,1,21.8,0.2c0.1,0,0.1,0,0.1,0c29.3-3.9,50.5-22.1,62.1-35.1c0,0,0,0,0,0c0.8-0.9,1.5-1.7,2.2-2.5c0.4-0.5,0.8-1,1.2-1.5
		c0.8-1,1.5-1.9,2.1-2.7c0.1-0.2,0.3-0.3,0.5-0.5c4.4-5.6,9.7-9.7,15.2-11.8c25.6-9.9,61.1,10.2,79.1,23.4c0.5,0.4,1.1,0.8,1.6,1.2
		c2,1.5,3.8,2.8,5.2,4c0.5,0.5,1.2,1,1.8,1.5c1.8,1.1,3.7,1.9,5.7,2.3c2.8,0.5,5.9,0.1,8.8-1c0.2,0,6.7-2.5,17.3-6.2c0,0,0,0,0.1,0
		c1.1-0.4,2.3-0.8,3.6-1.3c2.2-0.8,4.5-1.6,7-2.4c0.9-0.3,1.8-0.6,2.7-0.9c10-3.4,21.8-7.3,34.3-11.2c3.2-1,6.4-2,9.7-2.9
		c18.6-5.5,38.1-10.6,55.2-13.7c1.3-0.2,2.6-0.5,3.8-0.7c0.4-0.1,0.8-0.1,1.2-0.2c0.1,0,0.2,0,0.3-0.1l9-1.5
		c4.5-0.8,8.9-1.5,13.3-2.2c0.2,0,0.4,0,0.6-0.1c26.5-4.3,51.4-6.5,74.8,2.4c12.2,4.5,23.2,11.1,33.1,18.7c0.2,0.2,0.4,0.3,0.6,0.5
		c10.1,7.7,19.2,16.4,27.3,25.2c6.5,6.9,12.3,14,17.6,20.5c46.3,57.9,52.2,93.8,52.2,94c0.1,0.6,0.2,1.2,0.3,1.8
		c0.2,1,0.6,2,0.9,2.8c2.1,4.5,3.7,9.1,4.9,13.5v0.1c2.1,6.4,3,12.3,3.1,18.1c0.2,4.5-0.1,8.4-2.4,11.8c-0.2,0.4-0.5,0.7-0.8,1.1
		c-0.5,0.6-1,1.1-1.5,1.6c-0.2,0.2-0.4,0.3-0.6,0.5c-0.5,0.4-1.1,0.8-1.7,1.2c-0.4,0.3-0.9,0.6-1.4,0.9c0,0,0,0,0,0
		c-1.5,0.9-3.3,1.7-5.5,2.5c0,0-0.1,0-0.1,0l-0.4,0.4c-4.2,1.4-9.2,2.1-15.5,3.5c-23.3,3.5-35.3,20.5-45.2,34.6
		c-6.3,9.1-12,16.9-19.7,20.5c-12.4,5.8-26.7,8.6-40.8,10c-1.2,0.1-2.3,0.2-3.5,0.3c-3.1,0.3-6.3,0.4-9.3,0.6
		c-7.1,0.3-14,0.4-20.4,0.4H921c-22.6-0.7-43.8,2.8-64.2,10.6c-6.7,2.3-13.1,4.7-19.1,7.3c-1.5,0.6-3,1.3-4.5,1.9
		c-3.7,1.6-7.1,3.3-10.5,5c-1.7,0.9-3.4,1.7-5,2.6c-1.6,0.9-3.2,1.7-4.8,2.6c-1.3,0.7-2.5,1.4-3.7,2.1c-1.2,0.7-2.4,1.4-3.6,2.1
		c-3.5,2.2-6.8,4.3-9.9,6.6c-1,0.7-2.1,1.5-3.1,2.2c-0.4,0.3-1,0.8-1.6,1.3c-0.5,0.4-1,0.8-1.6,1.2c-0.5,0.4-1.1,0.9-1.8,1.3
		c-20.7,16.2-94.6,68.7-158.2,60.4l-2.2-1.4l-5.9-3.5l-25.9-15.5l-13.3-7.9L533,472.3l-0.2-0.1c-0.3-0.2-0.6-0.3-1-0.5
		c-2.3-1.1-4.7-1.7-7.1-1.7c-0.3,0-0.6,0-0.9,0h-0.1c-0.5,0-1,0.1-1.5,0.2c0,0-0.1,0-0.2,0c-0.4,0.1-0.7,0.1-1.1,0.2
		c-2.5,0.7-4.9,1.9-7,3.7c0,0-0.1,0.1-0.1,0.1c-0.7,0.6-1.3,1.3-1.8,2l-44.8,58.8L416.4,602l-0.1-0.2l-0.2,0.3l-53.4-126.9
		c-1.5-3.8-4.4-6.7-7.9-8.3c0,0-0.1,0-0.2-0.1c-1-0.4-2.1-0.7-3.2-0.9c-1.9-0.5-3.6-0.6-5.3-0.5c-2,0.2-3.8,0.8-5.6,1.7
		c-0.2,0.1-0.4,0.2-0.6,0.3c-1.2,0.7-2.2,1.6-3.3,2.6l-63.5,62.8C273.1,532.7,273.1,532.5,273,532.3z M941.3,602.1L941.3,602.1
		l-2-116.8l-0.3-16l0.3,0.2v-0.1l17.6,12l96.6,65.5l8.5,5.8l0,0c-9.8,8.7-20.5,16.7-32.2,24.2c-0.3,0.2-0.7,0.4-1,0.6
		c-7.2,4.6-14.7,9-22.7,13.3h-0.7c-19,9.9-40.9,19-64.2,26.1v-5.5L941.3,602.1z M995.6,468.8L995.6,468.8L970.8,452
		c0.2,0,0.4-0.1,0.6-0.1l-0.3-0.2c4.2-0.4,8.4-1.2,12.6-2.1c0.8-0.2,1.7-0.4,2.5-0.6c8.3-2.1,16.5-5.1,24.5-8.6
		c5.1-2.3,9.5-5.2,13.4-8.5c0.6-0.5,1.1-1,1.6-1.4c1.5-1.3,2.8-2.7,4.1-4c1.3-1.4,2.5-2.8,3.7-4.2c0.6-0.7,1.2-1.4,1.8-2.2
		c2.8-3.6,5.4-7.3,7.8-10.8c0.3-0.4,0.6-0.9,1-1.4c6.3-9.3,11.1-15.4,17.6-18.2c0.1,0,0.2-0.1,0.3-0.1c1.7-0.7,3.4-1.3,5.3-1.6
		l0.8,29.9l2.8,101.9L995.6,468.8z M791.1,638.7v-103l0.2,0.2v-0.3l80.2,73.9l10.9,10.1l10.3,9.3c-0.1,0-0.2,0-0.2,0
		c-32.1,6.4-66.2,9.9-101.2,10.1v-0.3H791.1z M818.6,517.3L818.6,517.3l-18.3-16.9c0.1,0,0.1-0.1,0.2-0.1c1.5-1.1,2.8-2.1,4-3
		c3.4-2.6,6.1-4.7,7.9-6.2c0.8-0.5,1.5-1.1,2.3-1.6c0.1-0.1,0.2-0.1,0.3-0.2c12.6-9.2,30.6-18.3,52.3-26.2c6.5-2.2,13.2-4,20-5.3
		c1-0.2,1.9-0.4,2.9-0.5c5.4-1,10.9-1.7,16.4-2.2v0.3c0.1,0,0.1,0,0.2,0l0.7,35.3l1.1,82.4l0.5,27.6l-0.1-0.1v0.2L818.6,517.3z
		 M646.4,562.5c2.7,0,5.1,0,7.6-0.1c2.9-0.2,5.8-0.5,8.7-0.9c19.8-2.4,39.3-8.2,57.4-15.5c0.6-0.2,1.1-0.4,1.7-0.7
		c13.5-5.7,26.2-12.2,37.5-18.8v109.4h-0.1v0.1c-22.7-1.3-66.2-8.6-95.2-43.4c-1-1.1-1.9-2.3-2.8-3.5c-0.9-1.1-1.7-2.2-2.5-3.4
		c-0.2-0.3-0.4-0.5-0.6-0.8c-2.4-3.5-4.7-7.1-6.8-11.1c-1.6-2.6-2.8-5.2-3.8-8.1c0,0,0-0.1,0-0.1c-0.4-0.9-0.8-1.8-1.1-2.8h0.2
		C646.5,562.7,646.4,562.6,646.4,562.5z M1101.4,602.9L1101.4,602.9c0.4,4.6,0.4,9.4-0.2,14.3c-2.6,20.3-15.7,38.8-39,54.8
		c-4.6,3.2-9.3,6.2-14,9.2c-0.2,0.1-0.4,0.3-0.7,0.4c-34.8,22-74.1,39-112.4,54.5c-71.3,28.2-137.7,50.1-202.6,65.7
		c-5.5,1.3-11.1,2.6-16.6,3.7c-11.2,2.4-22.3,4.4-33.4,6.1c-3.2,0.5-6.4,0.9-9.6,1.4c-0.8,0.1-1.7,0.2-2.5,0.3
		c-1.2,0.2-2.5,0.3-3.7,0.4c-7.5,0.9-14.9,1.6-22.3,2.2c-41.6,3.5-88.9,1.4-136.2-9.2c-7.2-1.3-14.2-2.8-20.9-4.4
		c-132.6-31.5-170.4-112.8-170.4-112.8c-16.8-25.5-29.1-56.1-36.3-93.1c-0.4-1.9-0.7-3.8-1.1-5.7c-0.2-1.3-0.4-2.7-0.6-4
		c0-0.1,0-0.2,0-0.2c-0.7-4.2-1.7-8.5-2.2-12.7l0.1-0.1c0,0,0-0.1,0-0.1l65.6-64.3l39.6,94.3l15.4,36.6c1.2,2.7,3.1,5.2,5.6,7
		c0.1,0.1,0.2,0.1,0.2,0.2c2,1.3,4.4,2.2,6.9,2.5c2.8,0.3,5.5-0.1,8.1-1.1c0.3-0.1,0.6-0.3,0.9-0.4c0,0,0,0,0,0
		c0.6-0.3,1.1-0.6,1.6-0.9h0c1.1-0.7,2-1.5,2.9-2.3c0.2-0.2,0.4-0.4,0.6-0.7c0.1-0.1,0.2-0.2,0.3-0.4c0.1-0.1,0.2-0.2,0.3-0.4
		l85.3-112l18.5-24.2l0.2-0.2l51.3,30.5v0.1l20,11.9l9.5,5.6v0l0.1,0.1c1.4,5.7,3.5,13.4,7.8,22.6c3.8,9,9,19.1,16.3,29.3
		c0.7,1,1.5,2.1,2.2,3.1c1,1.3,2,2.6,3.1,3.9c1.4,1.8,2.9,3.5,4.4,5.2c1.8,2,3.7,4,5.6,6c2.9,2.9,5.9,5.7,9.2,8.5c2.4,2,5,4,7.7,6
		c0,0,0,0,0,0c22.4,16.3,53.3,28.8,95.5,30.4c0.9,0,1.9,0.1,2.9,0.3c1.4,0,2.9,0.1,4.3,0.1h0.2c11.8,0.3,23.5,0.3,35.1,0
		c35.5-1.2,70.3-5.5,103.2-12.4c7.2-1.6,14.4-3.2,21.4-5.1c0.8-0.1,1.5-0.2,2.2-0.5c0,0,0,0,0.1,0c0.4-0.2,0.9-0.5,1.4-0.8
		c22.1-5.8,43.2-13,62.9-21.3c1.8-0.8,3.6-1.5,5.3-2.3c35.3-15.7,66.1-35.4,90.3-58.3c0,0.1,0.1,0.2,0.1,0.3l0.2-0.1
		C1095.8,578.6,1100.4,590.3,1101.4,602.9z"/>
	<path class="st5" d="M1269.2,142.7c-1.3-0.4-2.6-0.7-3.9-0.9c-2.1-0.3-4.3-0.5-6.4-0.5c-17.7,0-33.6,11-39.6,27.3
		c-0.8,2.1-1.2,4.3-1.4,6.5l-5.7,22.7L1165.7,380l-22.8-14.2c3.8-8.9,6.4-19.9,6.4-33.4c0-16.2-3.6-32.9-11-50.7
		c-4.1-17.2-17.9-58.4-62.9-115.1c-0.1-0.1-0.2-0.2-0.3-0.4c-25.6-31-57.7-64.9-102.1-81.5c-17.6-6.9-36.3-10.2-57.2-10.2
		c-21.1,0-40.8,3.3-59.9,6.5l-1.6,0.3c0,0-9.2,1.4-9.3,1.4c-44.8,7.5-100.5,26.2-125,34.9c-21-13.6-53.5-30-88.2-30
		c-12.3,0-24,2.1-34.9,6.2c-15.3,5.8-28.9,16-40.4,30.4c-0.2,0.3-0.4,0.5-0.6,0.8c-1.5,2-15.1,19.8-33.5,19.8
		c-1.1,0-2.3-0.1-3.5-0.2c-0.2,0-0.6-0.1-0.6-0.1c-6.2-0.7-12.9-1.1-19.8-1.1c-20.7,0-51.8,3.3-82.3,18.9
		c-30.4,15.5-53.6,39.5-69,71.4c-12.6-3.8-26.3-5.6-41-5.6c-10.1,0-20.7,0.9-31.5,2.8c-1.3,0.2-2.6,0.6-3.9,1
		c-12.4,4.2-20.6,14.6-21.1,26.6c0,0.2-0.1,0.5-0.1,0.8c-3,30.6-0.6,57.3,7,79c-0.5,0-1,0-1.5,0c-26.1,0-53.4,9-81.3,26.7
		c-1.6,1-3,2.1-4.3,3.4c-8.2,8.2-11.1,20.2-7.5,31.2c3.4,10.3,20.6,58.2,55,84.1c-1.9,20.8-2,39.4-0.5,57.4c0,3.7,0.2,7.5,0.5,11.3
		l-20.5,20.5l-39.4,38c-0.1,0.1-0.2,0.2-0.3,0.3c-4.3,4.3-7.8,9.9-9.6,15.6c-0.4,1.1-0.6,2.2-0.8,3.4L125,750.9
		c-0.1,0.7-0.2,1.3-0.3,2c-1.6,9.4,0.2,19,5.2,27.4c5.6,9.4,15,16.3,25.6,19c3.5,0.9,6.7,1.3,10,1.3c3.3,0,6.6-0.4,10-1.3
		c14.3-3.6,25.8-15.5,29.4-30.3c0-0.2,0.1-0.4,0.1-0.6l2.1-9.9c0.1-0.4,0.2-0.8,0.2-1.2l16.3-96.4l11.7-11.3
		c0.3,0.9,0.6,1.8,0.9,2.7c-17.6,47.2-20.9,82.4-10.1,107.3c0.8,1.9,1.9,3.8,3.2,5.4c1.9,2.7,4.2,4.9,6.9,6.7
		c11.5,9.1,42,26.2,84.8,26.2c7.1,0,13.8-0.4,20.5-1.4c7.3,5.2,15.7,10.6,25.4,15.2c32.8,20.3,69.8,36,110,46.8
		c40.6,10.8,83.6,16.3,127.8,16.3c14.6,0,28.5-0.7,43.7-2.2c32.3-2.2,64.3-7.3,97.7-15.5c68.1-16.7,136.8-38.9,210.1-68.1
		c0.1,0,0.1,0,0.2-0.1c43.8-17.8,94.3-39.4,138.2-69.6c0.1,0,0.1-0.1,0.2-0.1c36.8-25.9,58-57.7,63.3-94.6c0-0.2,0-0.4,0.1-0.5
		c5.5-46-18-85.7-30.4-101.7l-1.5-60.7l36.3,20.9c1,0.6,2.1,1.1,3.2,1.5c0.8,0.3,1.5,0.6,2.3,0.9c5.9,2.4,13.4,5.5,22.2,5.5
		c2.5,0,5.1-0.2,7.5-0.8c15.7-2.4,28.6-14.2,32.5-29.8l67.8-267.6C1303.6,170.8,1291.1,149.4,1269.2,142.7z M1273.9,186.3l-13.4,53
		l-54.4,214.6c-1.4,5.6-6.3,10.6-12.7,11.3c-5.6,1.4-11.3-1.4-18.3-4.2l-74.8-43.1l2.8,114.3c0.7,0.7,1.4,1.4,2.1,2.1
		c1.4,1.4,33.9,39.5,28.2,86.8c-4.2,29.6-21.8,55.8-52.9,77.6c-40.9,28.3-88.2,48.7-133.4,67c-72.7,29-140.5,50.8-206.8,67.1
		c-31.8,7.8-62.8,12.7-93.9,14.8c-14.1,1.4-27.5,2.1-41.6,2.1c-84.7,0-163.7-21.2-225.8-60c-12-5.6-21.9-12.7-31.1-19.8
		c-9.9,2.1-18.3,2.9-26.8,2.9c-43.1,0-69.2-20.5-70.6-21.9c-0.7,0-0.7-0.7-1.4-1.4c-14.1-32.5,12.7-93.2,13.4-96c0,0,0.7,0,0.7-0.7
		c-6.4-15.5-10.6-33.2-14.1-51.5l-48.7,47.3l-17.6,104.5l-2.1,9.9c-1.4,5.6-5.6,10.6-11.3,12c-2.8,0.7-4.9,0.7-7.8,0
		c-8.5-2.1-14.1-10.6-12-19v-0.7l21.2-120.7c0.7-2.1,2.1-4.2,3.5-5.6l39.5-38.1l29-29c-0.7-7-1.4-14.8-1.4-21.9
		c-2.1-24-0.7-47.3,2.1-69.9h-0.7c-0.7,0-1.4,0-2.1-0.7c-36-19-54.3-75.5-55-77.6c-0.7-2.1,0-4.2,1.4-5.6
		c52.2-33.2,86.1-21.2,93.1-18.4c0.7-0.7,1.4-2.1,2.2-2.8c2.8-5,6.3-9.2,9.2-13.4c-25.4-32.5-17-88.9-17-91.8c0-2.1,2.1-3.5,4.2-4.2
		c41.7-7.1,67.8,2.8,81.9,11.3c37.4-115,153.9-97.4,155.2-97.4c30.4,3.5,52.2-19,60-29.6c8.5-10.6,18.4-18.3,29.7-22.6
		c43-16.2,92.4,14.8,110.8,28.3c22.6-8.5,86.1-30.4,132.7-38.1l9.2-1.4c33.9-5.7,69.9-12,105.9,2.1c41.7,15.5,72,50.1,91.8,74.1
		c45.9,57.9,56.5,97.4,58.6,107.3c6.3,14.8,9.8,29,9.8,43c0,19.8-7,32.5-17.6,40.2l74.8,46.6l55.1-215.2l6.4-25.4v-1.4
		c2.8-7.8,11.3-12,19-10.6l0,0C1271,169.4,1276,177.9,1273.9,186.3z"/>
	<path class="st3" d="M1261.9,166.6L1261.9,166.6c-7.7-1.4-16.2,2.8-19,10.6v1.4l-6.4,25.4l-55.1,215.2l-74.8-46.6
		c10.6-7.8,17.6-20.5,17.6-40.2c0-14.1-3.5-28.2-9.8-43c-2.1-9.9-12.7-49.4-58.6-107.3c-19.8-24-50.1-58.6-91.8-74.1
		c-36-14.1-72-7.8-105.9-2.1l-9.2,1.4c-46.5,7.8-110.1,29.6-132.7,38.1c-18.4-13.4-67.8-44.5-110.8-28.3
		c-11.3,4.2-21.2,12-29.7,22.6c-7.8,10.6-29.7,33.2-60,29.6c-1.4,0-117.8-17.6-155.2,97.4c-14.2-8.5-40.2-18.3-81.9-11.3
		c-2.1,0.7-4.2,2.1-4.2,4.2c0,2.8-8.4,59.3,17,91.8c-2.8,4.2-6.3,8.5-9.2,13.4c-0.7,0.7-1.4,2.1-2.2,2.8c-7-2.8-40.9-14.8-93.1,18.4
		c-1.4,1.4-2.1,3.5-1.4,5.6c0.7,2.1,19,58.6,55,77.6c0.7,0.7,1.4,0.7,2.1,0.7h0.7c-2.8,22.6-4.2,45.9-2.1,69.9
		c0,7,0.7,14.8,1.4,21.9l-29,29l-39.5,38.1c-1.4,1.4-2.8,3.5-3.5,5.6l-21.2,120.7v0.7c-2.2,8.5,3.5,16.9,12,19c2.8,0.7,5,0.7,7.8,0
		c5.6-1.4,9.9-6.4,11.3-12l2.1-9.9l17.6-104.5l48.7-47.3c3.5,18.3,7.8,36,14.1,51.5c0,0.7-0.7,0.7-0.7,0.7
		c-0.7,2.8-27.5,63.5-13.4,96c0.7,0.7,0.7,1.4,1.4,1.4c1.4,1.4,27.5,21.9,70.6,21.9c8.5,0,16.9-0.7,26.8-2.9
		c9.2,7.1,19,14.1,31.1,19.8c62.1,38.8,141.2,60,225.8,60c14.1,0,27.5-0.7,41.6-2.1c31.1-2.1,62.1-7,93.9-14.8
		c66.3-16.2,134.1-38.1,206.8-67.1c45.1-18.3,92.4-38.8,133.4-67c31.1-21.9,48.7-48,52.9-77.6c5.6-47.3-26.8-85.4-28.2-86.8
		c-0.7-0.7-1.4-1.4-2.1-2.1l-2.8-114.3l74.8,43.1c7.1,2.8,12.7,5.6,18.3,4.2c6.4-0.7,11.3-5.6,12.7-11.3l54.4-214.6l13.4-53
		C1276,177.9,1271,169.4,1261.9,166.6z M273,532.3L273,532.3l-0.2,0.2c-0.1-1-0.1-2.1-0.1-3.1c0-0.1,0-0.2,0-0.3
		c-0.3-3.4-0.3-6.6-0.3-9.7c-0.4-29.5,3.5-57.4,11.4-82.9c0.5-1.6,1-3.2,1.6-4.9c0-0.2,0.1-0.4,0.2-0.6c0.7-2.2,1.5-4.4,2.3-6.5
		c5.5-15.1,12.6-29.2,21-42.1c10.4-15.8,22.5-30.2,36-42.8c0,0,0.1-0.1,0.2-0.2c3-2.9,6.1-5.7,9.2-8.4c1.4-0.7,2.8-2.1,5.6-3.5
		c1-0.5,2.1-1.1,3.1-1.7c2.9-1.8,5.5-3.8,7.6-5.4c1.4-0.7,2.8-1.4,3.5-2.1c0.4-0.4,1-0.8,1.6-1.2c0.4-0.3,0.8-0.7,1.1-1
		c0.3-0.3,0.7-0.6,1-1l0,0l2-2.4c0.3,0,0.6-0.1,0.8-0.2c0.2-0.2,0.4-0.5,0.6-0.8c0.2-0.3,0.4-0.6,0.7-0.9c0,0,0,0,0-0.1
		c0.7-1.3,1.4-2.5,1.9-3.8c0.3-0.9,0.6-1.9,0.7-2.9c7.5-45,27-70.7,48.5-85.2c1.5-1,2.9-1.9,4.4-2.8c4.9-3,9.9-5.4,14.8-7.4
		c6.3-2.6,12.7-4.3,18.6-5.6c4-0.8,7.8-1.4,11.4-1.8h0c2.7-0.3,5.3-0.5,7.7-0.7h0c2.5-0.1,4.8-0.2,6.9-0.2c7.8,0,13.4,0.7,14.8,0.7
		c7.7,1,15,1,21.8,0.2c0.1,0,0.1,0,0.1,0c29.3-3.9,50.5-22.1,62.1-35.1c0,0,0,0,0,0c0.8-0.9,1.5-1.7,2.2-2.5c0.4-0.5,0.8-1,1.2-1.5
		c0.8-1,1.5-1.9,2.1-2.7c0.1-0.2,0.3-0.3,0.5-0.5c4.4-5.6,9.7-9.7,15.2-11.8c25.6-9.9,61.1,10.2,79.1,23.4c0.5,0.4,1.1,0.8,1.6,1.2
		c2,1.5,3.8,2.8,5.2,4c0.5,0.5,1.2,1,1.8,1.5c1.8,1.1,3.7,1.9,5.7,2.3c2.8,0.5,5.9,0.1,8.8-1c0.2,0,6.7-2.5,17.3-6.2c0,0,0,0,0.1,0
		c1.1-0.4,2.3-0.8,3.6-1.3c2.2-0.8,4.5-1.6,7-2.4c0.9-0.3,1.8-0.6,2.7-0.9c10-3.4,21.8-7.3,34.3-11.2c3.2-1,6.4-2,9.7-2.9
		c18.6-5.5,38.1-10.6,55.2-13.7c1.3-0.2,2.6-0.5,3.8-0.7c0.4-0.1,0.8-0.1,1.2-0.2c0.1,0,0.2,0,0.3-0.1l9-1.5
		c4.5-0.8,8.9-1.5,13.3-2.2c0.2,0,0.4,0,0.6-0.1c26.5-4.3,51.4-6.5,74.8,2.4c12.2,4.5,23.2,11.1,33.1,18.7c0.2,0.2,0.4,0.3,0.6,0.5
		c10.1,7.7,19.2,16.4,27.3,25.2c6.5,6.9,12.3,14,17.6,20.5c46.3,57.9,52.2,93.8,52.2,94c0.1,0.6,0.2,1.2,0.3,1.8
		c0.2,1,0.6,2,0.9,2.8c2.1,4.5,3.7,9.1,4.9,13.5v0.1c2.1,6.4,3,12.3,3.1,18.1c0.2,4.5-0.1,8.4-2.4,11.8c-0.2,0.4-0.5,0.7-0.8,1.1
		c-0.5,0.6-1,1.1-1.5,1.6c-0.2,0.2-0.4,0.3-0.6,0.5c-0.5,0.4-1.1,0.8-1.7,1.2c-0.4,0.3-0.9,0.6-1.4,0.9c0,0,0,0,0,0
		c-1.5,0.9-3.3,1.7-5.5,2.5c0,0-0.1,0-0.1,0l-0.4,0.4c-4.2,1.4-9.2,2.1-15.5,3.5c-23.3,3.5-35.3,20.5-45.2,34.6
		c-6.3,9.1-12,16.9-19.7,20.5c-12.4,5.8-26.7,8.6-40.8,10c-1.2,0.1-2.3,0.2-3.5,0.3c-3.1,0.3-6.3,0.4-9.3,0.6
		c-7.1,0.3-14,0.4-20.4,0.4H921c-22.6-0.7-43.8,2.8-64.2,10.6c-6.7,2.3-13.1,4.7-19.1,7.3c-1.5,0.6-3,1.3-4.5,1.9
		c-3.7,1.6-7.1,3.3-10.5,5c-1.7,0.9-3.4,1.7-5,2.6c-1.6,0.9-3.2,1.7-4.8,2.6c-1.3,0.7-2.5,1.4-3.7,2.1c-1.2,0.7-2.4,1.4-3.6,2.1
		c-3.5,2.2-6.8,4.3-9.9,6.6c-1,0.7-2.1,1.5-3.1,2.2c-0.4,0.3-1,0.8-1.6,1.3c-0.5,0.4-1,0.8-1.6,1.2c-0.5,0.4-1.1,0.9-1.8,1.3
		c-20.7,16.2-94.6,68.7-158.2,60.4l-2.2-1.4l-5.9-3.5l-25.9-15.5l-13.3-7.9L533,472.3l-0.2-0.1c-0.3-0.2-0.6-0.3-1-0.5
		c-2.3-1.1-4.7-1.7-7.1-1.7c-0.3,0-0.6,0-0.9,0h-0.1c-0.5,0-1,0.1-1.5,0.2c0,0-0.1,0-0.2,0c-0.4,0.1-0.7,0.1-1.1,0.2
		c-2.5,0.7-4.9,1.9-7,3.7c0,0-0.1,0.1-0.1,0.1c-0.7,0.6-1.3,1.3-1.8,2l-44.8,58.8L416.4,602l-0.1-0.2l-0.2,0.3l-53.4-126.9
		c-1.5-3.8-4.4-6.7-7.9-8.3c0,0-0.1,0-0.2-0.1c-1-0.4-2.1-0.7-3.2-0.9c-1.9-0.5-3.6-0.6-5.3-0.5c-2,0.2-3.8,0.8-5.6,1.7
		c-0.2,0.1-0.4,0.2-0.6,0.3c-1.2,0.7-2.2,1.6-3.3,2.6l-63.5,62.8C273.1,532.7,273.1,532.5,273,532.3z M941.3,602.1L941.3,602.1
		l-2-116.8l-0.3-16l0.3,0.2v-0.1l17.6,12l96.6,65.5l8.5,5.8l0,0c-9.8,8.7-20.5,16.7-32.2,24.2c-0.3,0.2-0.7,0.4-1,0.6
		c-7.2,4.6-14.7,9-22.7,13.3h-0.7c-19,9.9-40.9,19-64.2,26.1v-5.5L941.3,602.1z M995.6,468.8L995.6,468.8L970.8,452
		c0.2,0,0.4-0.1,0.6-0.1l-0.3-0.2c4.2-0.4,8.4-1.2,12.6-2.1c0.8-0.2,1.7-0.4,2.5-0.6c8.3-2.1,16.5-5.1,24.5-8.6
		c5.1-2.3,9.5-5.2,13.4-8.5c0.6-0.5,1.1-1,1.6-1.4c1.5-1.3,2.8-2.7,4.1-4c1.3-1.4,2.5-2.8,3.7-4.2c0.6-0.7,1.2-1.4,1.8-2.2
		c2.8-3.6,5.4-7.3,7.8-10.8c0.3-0.4,0.6-0.9,1-1.4c6.3-9.3,11.1-15.4,17.6-18.2c0.1,0,0.2-0.1,0.3-0.1c1.7-0.7,3.4-1.3,5.3-1.6
		l0.8,29.9l2.8,101.9L995.6,468.8z M791.1,638.7v-103l0.2,0.2v-0.3l80.2,73.9l10.9,10.1l10.3,9.3c-0.1,0-0.2,0-0.2,0
		c-32.1,6.4-66.2,9.9-101.2,10.1v-0.3H791.1z M818.6,517.3L818.6,517.3l-18.3-16.9c0.1,0,0.1-0.1,0.2-0.1c1.5-1.1,2.8-2.1,4-3
		c3.4-2.6,6.1-4.7,7.9-6.2c0.8-0.5,1.5-1.1,2.3-1.6c0.1-0.1,0.2-0.1,0.3-0.2c12.6-9.2,30.6-18.3,52.3-26.2c6.5-2.2,13.2-4,20-5.3
		c1-0.2,1.9-0.4,2.9-0.5c5.4-1,10.9-1.7,16.4-2.2v0.3c0.1,0,0.1,0,0.2,0l0.7,35.3l1.1,82.4l0.5,27.6l-0.1-0.1v0.2L818.6,517.3z
		 M646.4,562.5c2.7,0,5.1,0,7.6-0.1c2.9-0.2,5.8-0.5,8.7-0.9c19.8-2.4,39.3-8.2,57.4-15.5c0.6-0.2,1.1-0.4,1.7-0.7
		c13.5-5.7,26.2-12.2,37.5-18.8v109.4h-0.1v0.1c-22.7-1.3-66.2-8.6-95.2-43.4c-1-1.1-1.9-2.3-2.8-3.5c-0.9-1.1-1.7-2.2-2.5-3.4
		c-0.2-0.3-0.4-0.5-0.6-0.8c-2.4-3.5-4.7-7.1-6.8-11.1c-1.6-2.6-2.8-5.2-3.8-8.1c0,0,0-0.1,0-0.1c-0.4-0.9-0.8-1.8-1.1-2.8h0.2
		C646.5,562.7,646.4,562.6,646.4,562.5z M1101.4,602.9L1101.4,602.9c0.4,4.6,0.4,9.4-0.2,14.3c-2.6,20.3-15.7,38.8-39,54.8
		c-4.6,3.2-9.3,6.2-14,9.2c-0.2,0.1-0.4,0.3-0.7,0.4c-34.8,22-74.1,39-112.4,54.5c-71.3,28.2-137.7,50.1-202.6,65.7
		c-5.5,1.3-11.1,2.6-16.6,3.7c-11.2,2.4-22.3,4.4-33.4,6.1c-3.2,0.5-6.4,0.9-9.6,1.4c-0.8,0.1-1.7,0.2-2.5,0.3
		c-1.2,0.2-2.5,0.3-3.7,0.4c-7.5,0.9-14.9,1.6-22.3,2.2c-41.6,3.5-88.9,1.4-136.2-9.2c-7.2-1.3-14.2-2.8-20.9-4.4
		c-132.6-31.5-170.4-112.8-170.4-112.8c-16.8-25.5-29.1-56.1-36.3-93.1c-0.4-1.9-0.7-3.8-1.1-5.7c-0.2-1.3-0.4-2.7-0.6-4
		c0-0.1,0-0.2,0-0.2c-0.7-4.2-1.7-8.5-2.2-12.7l0.1-0.1c0,0,0-0.1,0-0.1l65.6-64.3l39.6,94.3l15.4,36.6c1.2,2.7,3.1,5.2,5.6,7
		c0.1,0.1,0.2,0.1,0.2,0.2c2,1.3,4.4,2.2,6.9,2.5c2.8,0.3,5.5-0.1,8.1-1.1c0.3-0.1,0.6-0.3,0.9-0.4c0,0,0,0,0,0
		c0.6-0.3,1.1-0.6,1.6-0.9h0c1.1-0.7,2-1.5,2.9-2.3c0.2-0.2,0.4-0.4,0.6-0.7c0.1-0.1,0.2-0.2,0.3-0.4c0.1-0.1,0.2-0.2,0.3-0.4
		l85.3-112l18.5-24.2l0.2-0.2l51.3,30.5v0.1l20,11.9l9.5,5.6v0l0.1,0.1c1.4,5.7,3.5,13.4,7.8,22.6c3.8,9,9,19.1,16.3,29.3
		c0.7,1,1.5,2.1,2.2,3.1c1,1.3,2,2.6,3.1,3.9c1.4,1.8,2.9,3.5,4.4,5.2c1.8,2,3.7,4,5.6,6c2.9,2.9,5.9,5.7,9.2,8.5c2.4,2,5,4,7.7,6
		c0,0,0,0,0,0c22.4,16.3,53.3,28.8,95.5,30.4c0.9,0,1.9,0.1,2.9,0.3c1.4,0,2.9,0.1,4.3,0.1h0.2c11.8,0.3,23.5,0.3,35.1,0
		c35.5-1.2,70.3-5.5,103.2-12.4c7.2-1.6,14.4-3.2,21.4-5.1c0.8-0.1,1.5-0.2,2.2-0.5c0,0,0,0,0.1,0c0.4-0.2,0.9-0.5,1.4-0.8
		c22.1-5.8,43.2-13,62.9-21.3c1.8-0.8,3.6-1.5,5.3-2.3c35.3-15.7,66.1-35.4,90.3-58.3c0,0.1,0.1,0.2,0.1,0.3l0.2-0.1
		C1095.8,578.6,1100.4,590.3,1101.4,602.9z"/>
	<path class="st3" d="M643,283.2v0.1c0,0.1,0,0.5-0.1,0.8c0,1.3-0.4,3.7-1.7,6.3v0.1c-3.5,7.1-13.5,16-42.5,11.3
		c-9.1-1.5-20.3-4.4-33.6-9.1c-17.2-6.2-30.9-9-42.1-10c-30.9-2.6-41.6,10.7-44.8,17.2c-0.1,0.1-0.1,0.3-0.1,0.3
		c-0.4,1-0.6,1.8-1,2.4c-0.1,0.5-0.3,0.9-0.3,0.9s0.6-0.4,1.9-0.8c4.5-1.4,15.8-4,25.3,4c-5.8,12.5-8.2,27.3-6.3,43
		c4.6,38.1,33.8,66,64.9,62.1c22.6-2.7,40-21.3,46.3-45.7c2.4-9.4,3.1-19.6,1.8-30.3c-0.4-3.3-0.9-6.5-1.8-9.6
		C637.2,325.5,656.6,315.1,643,283.2L643,283.2z M559.8,336.6c-1.3-11.3,4.9-21.4,13.9-22.6c9-1,17.5,7.3,18.9,18.6
		c1.4,11.3-4.9,21.4-13.7,22.5C569.7,356.3,561.2,347.9,559.8,336.6z"/>
	<path class="st3" d="M1025.9,248.3c-1.9,2.4-4.2,4.8-6.8,6.5c-6.5,4.8-15,7.7-22.9,5.6c-9.9-2.6-13.4-9.4-12.8-16.9
		c-0.1-0.4,0-0.8,0-1.2c1.3-10.9,10.5-23,20.3-26.1c11.2-3.5,25.2,2.9,27.3,14.4C1032.2,237.1,1029.8,243.2,1025.9,248.3
		L1025.9,248.3z"/>
	<path class="st3" d="M901.9,297.9l-0.1,0.1c-0.3,0.9-0.8,1.8-1.4,2.8c-4.1,7.1-12.2,10.9-20.2,12.2c-9.4,1.5-20.1-0.8-25.5-8.6
		c-1.9-2.8-2.8-6-2.8-9.4v-0.3c0-7.8,4.8-16.2,12.1-19.9c9.1-4.8,24.1-2.7,32.7,4.1C902.3,283.5,905.2,289.9,901.9,297.9
		L901.9,297.9z"/>
</g>
</svg>
